<svg xmlns="http://www.w3.org/2000/svg" version="1.1" viewBox="-5.0 -10.0 110.0 135.0">
 <path d="m51.133 88.602h-16.273c-0.60156 0.042969-1.0703 0.54688-1.0703 1.1523 0 0.60938 0.46875 1.1133 1.0703 1.1562h16.273c0.60547-0.042968 1.0742-0.54688 1.0742-1.1562 0-0.60547-0.46875-1.1094-1.0742-1.1523zm-16.273-2.332h16.273c1.9023 0.035157 3.4258 1.5859 3.4258 3.4844 0 1.9023-1.5234 3.4531-3.4258 3.4844h-16.273c-1.8984-0.03125-3.4219-1.582-3.4219-3.4844 0-1.8984 1.5234-3.4492 3.4219-3.4844zm7.3516-49.121-3.9062 2.2539c-0.83594 0.47266-1.2461 1.4492-0.99609 2.3789 0.76953 2.9766 1.9375 5.8359 3.4766 8.5 1.5391 2.6641 3.4336 5.1094 5.6289 7.2617 0.67578 0.68359 1.7266 0.81641 2.5508 0.32422l3.8438-2.2188 0.058594-0.035157c0.51953-0.30078 1.1367-0.38281 1.7148-0.22656 0.57812 0.15234 1.0703 0.53125 1.3711 1.0508l4.918 8.5156c0.29688 0.51562 0.37891 1.1328 0.22656 1.7109-0.15625 0.57422-0.53516 1.0703-1.0508 1.3672l-5.5703 3.2305c-0.019531 0.015625-0.039062 0.023437-0.058593 0.035156l-0.003907 0.003906c-2.4258 1.4414-5.4062 1.6055-7.9766 0.4375-7.043-3.1016-12.914-8.3711-16.754-15.043-3.8555-6.6602-5.4805-14.375-4.6484-22.023 0.27344-2.8086 1.9023-5.3086 4.3672-6.6914l5.6328-3.2539c1.0781-0.625 2.4609-0.25391 3.0859 0.82422l4.9141 8.5156c0.30078 0.51953 0.38281 1.1328 0.22656 1.7109-0.15234 0.57812-0.53125 1.0742-1.0508 1.3711zm10.566 21.207 4.8516 8.4062 1.1992-0.69141-4.8555-8.4062-1.1992 0.69141zm-15-21.332-4.8516-8.4023-2.3633 1.3672v0.003907c-1.8203 1.0078-3.0273 2.8516-3.2148 4.9258-0.78516 7.1602 0.73828 14.383 4.3438 20.617 3.5977 6.2422 9.0898 11.172 15.684 14.074 1.8906 0.87109 4.0898 0.75391 5.8789-0.31641 0.019532-0.011719 0.042969-0.023438 0.0625-0.035157l2.3008-1.3281-4.8555-8.4062-0.63281 0.36719h0.003906c-1.7305 1.0117-3.9219 0.73047-5.3438-0.67969-2.3477-2.3047-4.3672-4.9141-6.0078-7.7617-1.6445-2.8477-2.8945-5.9062-3.7188-9.0898-0.51562-1.9375 0.33984-3.9766 2.082-4.9648l0.63672-0.36719zm-2.8438-9.5625 4.8555 8.4023 1.2031-0.69531-4.8516-8.3984-1.2031 0.69531zm-1.625-24.828 1.2695 3.9102h16.844l1.2656-3.9102zm34.023 49.191h20.391v-5.1914h-20.391c-0.46484 0-0.91016-0.1875-1.2383-0.51562-0.32812-0.32422-0.51172-0.76953-0.51562-1.2305v-1.2109l-6.4102 5.5508 6.4102 5.5508v-1.207c0-0.46094 0.18359-0.89844 0.51172-1.2266l0.007812-0.007812c0.32422-0.32813 0.76562-0.51172 1.2305-0.51172zm6.3906 2.3281-0.003906 40.5c-0.003906 1.4961-1.2188 2.7109-2.7148 2.7148h-56.012c-1.5-0.003907-2.7148-1.2188-2.7148-2.7148v-89.305c0-1.4961 1.2148-2.7109 2.7148-2.7148h15.871l1.6367 5.0352v-0.003907c0.23047 0.72266 0.90234 1.2109 1.6562 1.2109h17.688c0.75391 0 1.4258-0.48828 1.6602-1.2109l1.6289-5.0312h15.871c1.4961 0.003907 2.7109 1.2188 2.7148 2.7148v22.039h-15.734c-0.46094 0-0.90625 0.18359-1.2305 0.51172l-0.007812 0.007812c-0.32422 0.32422-0.50781 0.76562-0.50781 1.2266v6.3633c0 0.46094 0.18359 0.90625 0.51172 1.2305 0.32812 0.32813 0.77344 0.51563 1.2344 0.51563h15.734v7.0508h-5.8047v-1.8945c0-0.68359-0.39844-1.3086-1.0195-1.5898-0.625-0.28516-1.3555-0.17969-1.8711 0.26953l-7.875 6.8203v0.003906c-0.38281 0.33203-0.60156 0.8125-0.60156 1.3164 0 0.50781 0.21875 0.98828 0.60156 1.3203l7.875 6.8203c0.51562 0.44922 1.2461 0.55469 1.8672 0.26953s1.0234-0.90234 1.0234-1.5859v-1.8945zm-15.156-19.238h20.395c0.46094 0 0.90625 0.1875 1.2305 0.51563 0.32812 0.32422 0.51172 0.76953 0.51172 1.2344v1.2031l6.4141-5.5508-6.4102-5.5508v1.2031c0 0.46484-0.18359 0.90625-0.51172 1.2344-0.32812 0.32812-0.77344 0.51172-1.2344 0.51172h-20.395z" fill-rule="evenodd"/>
</svg>