<svg xmlns="http://www.w3.org/2000/svg" version="1.1" viewBox="-5.0 -10.0 110.0 135.0">
 <path d="m90.781 49.844-39.672-39.672c-0.60938-0.625-1.6094-0.625-2.2188 0l-39.672 39.672c-1.3906 1.3906-1.7969 3.3906-1.0312 5.2031 0.75 1.8281 2.4375 2.9531 4.4219 2.9531h5.75v24.281c0 4.4219 3.5938 8.0156 8.0156 8.0156h12.344c0.85938 0 1.5625-0.70312 1.5625-1.5625v-19.344c0-2.6875 2.1875-4.875 4.8906-4.875h9.6562c2.7031 0 4.8906 2.1875 4.8906 4.875v19.344c0 0.85938 0.70312 1.5625 1.5625 1.5625h12.344c4.4219 0 8.0156-3.5938 8.0156-8.0156v-24.281h5.75c1.9844 0 3.6719-1.125 4.4219-2.9531 0.76562-1.8125 0.35938-3.8125-1.0312-5.2031z"/>
</svg>