<svg xmlns="http://www.w3.org/2000/svg" xmlns:ooo="http://xml.openoffice.org/svg/export" xmlns:xlink="http://www.w3.org/1999/xlink" xmlns:presentation="http://sun.com/xmlns/staroffice/presentation" xmlns:smil="http://www.w3.org/2001/SMIL20/" xmlns:anim="urn:oasis:names:tc:opendocument:xmlns:animation:1.0" version="1.2" viewBox="0 0 2540 3175" preserveAspectRatio="xMidYMid" fill-rule="evenodd" stroke-width="28.222" stroke-linejoin="round" xml:space="preserve" x="0px" y="0px"><defs class="ClipPathGroup"><clipPath id="a" clipPathUnits="userSpaceOnUse"><rect x="0" y="0" width="2540" height="2540"/></clipPath></defs><g class="SlideGroup"><g><g><g class="Slide" clip-path="url(#a)"><g class="Page"><g class="com.sun.star.drawing.ClosedBezierShape"><g><rect class="BoundingBox" stroke="none" fill="none" x="1004" y="1488" width="905" height="699"/><path fill="rgb(0,0,0)" stroke="none" d="M 1136,1491 L 1155,1570 1087,1570 1087,2007 1826,2007 1826,1570 1372,1570 1392,1490 C 1394,1490 1396,1489 1398,1488 L 1867,1488 C 1875,1488 1881,1490 1888,1494 1894,1497 1899,1502 1903,1509 1907,1515 1908,1522 1908,1529 L 1908,2049 C 1908,2056 1907,2063 1903,2069 1899,2076 1894,2080 1888,2084 1881,2088 1875,2090 1867,2090 L 1549,2090 1582,2138 1742,2138 1768,2185 1146,2185 1171,2138 1330,2138 1364,2090 1046,2090 C 1039,2090 1032,2088 1026,2084 1019,2080 1014,2076 1011,2069 1007,2063 1005,2056 1005,2049 L 1005,1529 C 1005,1522 1007,1515 1011,1509 1014,1502 1019,1497 1026,1494 1032,1490 1039,1488 1046,1488 L 1129,1488 C 1131,1489 1133,1490 1136,1491 Z"/></g></g><g class="com.sun.star.drawing.ClosedBezierShape"><g><rect class="BoundingBox" stroke="none" fill="none" x="242" y="593" width="794" height="984"/><path fill="rgb(0,0,0)" stroke="none" d="M 337,869 L 378,627 C 379,622 380,618 383,614 387,607 391,602 398,599 404,595 411,593 418,593 421,593 423,593 425,594 L 1001,689 C 1006,690 1010,691 1014,694 1021,698 1026,702 1029,709 1033,715 1035,722 1035,729 1035,732 1035,734 1034,736 L 1006,901 969,891 C 966,890 964,890 961,890 956,890 952,891 948,894 943,896 940,899 938,904 L 916,941 946,763 452,681 406,955 C 383,927 360,898 337,869 Z M 374,1148 L 330,1405 824,1487 890,1097 933,1140 C 931,1155 930,1170 930,1185 930,1198 931,1211 932,1224 L 863,1293 C 861,1295 860,1297 858,1299 856,1303 855,1308 855,1313 855,1318 856,1322 858,1326 L 917,1430 898,1541 C 897,1546 896,1551 893,1555 889,1562 885,1566 878,1570 872,1574 865,1576 858,1576 855,1576 853,1576 851,1575 L 276,1480 C 271,1479 267,1478 263,1475 256,1471 251,1466 248,1460 244,1453 242,1447 242,1439 242,1437 242,1435 243,1433 L 305,1063 C 328,1091 351,1120 374,1148 Z"/></g></g><g class="com.sun.star.drawing.ClosedBezierShape"><g><rect class="BoundingBox" stroke="none" fill="none" x="1426" y="477" width="900" height="906"/><path fill="rgb(0,0,0)" stroke="none" d="M 1664,1072 C 1664,1071 1665,1070 1666,1069 1685,1079 1705,1087 1726,1094 1772,1109 1822,1117 1875,1117 1877,1117 1878,1117 1879,1117 1880,1117 1881,1117 1882,1117 L 1882,1158 1882,1117 C 1883,1117 1884,1117 1884,1117 1885,1117 1886,1117 1887,1117 1888,1117 1888,1117 1889,1117 L 1887,1158 1889,1117 C 1890,1117 1890,1117 1891,1117 1892,1117 1894,1117 1895,1117 L 1890,1158 1895,1117 C 1896,1117 1896,1117 1897,1118 L 1892,1158 1897,1118 C 1898,1118 1898,1118 1898,1118 L 1893,1158 1898,1118 1899,1118 1900,1118 1901,1118 1897,1159 1901,1118 C 1901,1118 1902,1118 1903,1118 1903,1118 1904,1118 1905,1118 1912,1119 1917,1120 1923,1124 1929,1127 1934,1132 1938,1139 1938,1140 1939,1141 1940,1143 1949,1164 1964,1184 1982,1202 2001,1221 2024,1238 2050,1252 2066,1262 2084,1270 2103,1277 2099,1272 2096,1268 2093,1263 2078,1242 2066,1220 2057,1199 2052,1187 2048,1176 2045,1164 2042,1152 2040,1140 2040,1128 2040,1122 2041,1116 2042,1110 2043,1104 2044,1100 2047,1095 2051,1089 2055,1084 2062,1080 2063,1079 2064,1079 2066,1078 2093,1066 2118,1051 2140,1034 2161,1017 2180,998 2196,978 2211,957 2222,935 2230,912 2238,888 2243,864 2243,838 2243,819 2240,800 2236,782 2231,764 2225,747 2216,731 2207,714 2197,698 2184,684 2172,669 2157,655 2141,643 2108,617 2068,596 2024,582 1979,567 1929,559 1875,559 1822,559 1772,567 1726,582 1682,596 1643,617 1610,642 1594,655 1579,669 1566,684 1554,698 1543,714 1535,731 1526,747 1520,764 1515,782 1511,800 1508,819 1508,838 1508,857 1511,876 1515,893 1516,896 1517,899 1517,902 L 1465,917 C 1454,909 1443,902 1431,895 1428,876 1426,857 1426,838 1426,812 1429,786 1435,762 1441,738 1450,715 1462,692 1473,671 1487,650 1504,631 1520,611 1538,594 1559,578 1599,546 1647,521 1701,503 1754,486 1813,477 1875,477 1938,477 1996,486 2049,503 2103,521 2151,546 2192,578 2212,594 2231,611 2247,630 2263,650 2277,671 2289,692 2300,715 2309,738 2316,762 2322,786 2325,812 2325,838 2325,873 2319,907 2308,938 2297,970 2282,999 2262,1027 2242,1053 2218,1078 2190,1099 2170,1115 2148,1129 2124,1141 2124,1143 2125,1144 2125,1145 2127,1152 2129,1159 2132,1167 2139,1183 2149,1200 2161,1217 2185,1253 2216,1287 2240,1313 2242,1315 2244,1318 2246,1321 2250,1327 2251,1334 2251,1341 2251,1349 2250,1355 2246,1362 2242,1368 2237,1373 2231,1377 2224,1381 2218,1382 2210,1382 L 2209,1382 C 2176,1381 2142,1376 2107,1365 2073,1355 2040,1341 2009,1324 1977,1306 1948,1284 1924,1260 1905,1241 1889,1221 1876,1199 L 1875,1199 C 1813,1199 1754,1189 1701,1172 1667,1161 1634,1147 1605,1129 L 1664,1072 Z"/></g></g><g class="com.sun.star.drawing.ClosedBezierShape"><g><rect class="BoundingBox" stroke="none" fill="none" x="881" y="785" width="765" height="797"/><path fill="rgb(0,0,0)" stroke="none" d="M 1641,1311 L 1562,1447 1459,1418 C 1432,1440 1403,1459 1371,1470 L 1342,1580 1187,1580 1161,1471 C 1143,1464 1127,1457 1111,1447 1095,1438 1080,1427 1067,1416 L 958,1448 882,1312 961,1233 C 957,1200 956,1165 963,1130 L 884,1053 961,917 1068,946 C 1095,924 1125,905 1157,894 L 1186,785 1339,786 1367,895 C 1383,901 1399,908 1415,918 1430,926 1446,937 1459,949 L 1459,948 1567,916 1644,1053 1565,1131 C 1570,1166 1569,1200 1563,1235 L 1641,1311 Z M 1132,1106 C 1089,1181 1113,1272 1187,1315 1262,1358 1351,1334 1394,1258 1437,1183 1414,1093 1339,1050 1265,1007 1175,1030 1132,1106 Z"/></g></g><g class="com.sun.star.drawing.ClosedBezierShape"><g><rect class="BoundingBox" stroke="none" fill="none" x="141" y="754" width="466" height="572"/><path fill="rgb(0,0,0)" stroke="none" d="M 158,837 C 155,833 152,830 149,826 116,788 191,726 222,768 225,771 227,774 230,777 L 158,837 Z M 247,798 C 356,935 465,1072 574,1209 584,1247 595,1286 605,1324 572,1304 539,1285 506,1266 396,1130 285,994 175,858 L 247,798 Z"/></g></g><g class="com.sun.star.drawing.ClosedBezierShape"><g><rect class="BoundingBox" stroke="none" fill="none" x="457" y="356" width="1637" height="1676"/><path fill="rgb(0,0,0)" stroke="none" d="M 2036,1392 C 2055,1403 2074,1412 2093,1421 2083,1468 2068,1513 2050,1556 2023,1621 1989,1682 1947,1738 L 1947,1583 C 1957,1564 1966,1545 1974,1525 1993,1479 2008,1431 2018,1380 2024,1384 2030,1388 2036,1392 Z M 1587,509 C 1579,505 1570,501 1561,498 1467,459 1362,438 1251,438 1140,438 1035,459 941,498 875,525 814,561 759,603 L 653,586 C 727,517 814,461 910,422 1014,379 1129,356 1251,356 1373,356 1489,379 1593,422 1624,435 1654,449 1683,465 1649,477 1617,492 1587,509 Z M 555,1582 C 592,1653 638,1716 693,1772 763,1841 847,1897 941,1936 947,1938 953,1941 960,1943 L 960,2031 C 943,2025 926,2019 910,2012 806,1969 713,1907 635,1830 560,1755 500,1666 457,1566 L 555,1582 Z"/></g></g></g></g></g></g></g>
</svg>