<svg xmlns="http://www.w3.org/2000/svg" version="1.1" viewBox="-5.0 -10.0 110.0 135.0">
 <path d="m51.543 4.5273c0-1.8125 1.4688-3.2812 3.2812-3.2852h32.602c1.8125 0.003906 3.2812 1.4727 3.2812 3.2852v37.98c0 1.8125-1.4688 3.2812-3.2812 3.2852h-32.602c-1.8125-0.003907-3.2812-1.4727-3.2852-3.2852v-37.98zm-26.906 28.168c0-1.8125 1.4727-3.2812 3.2852-3.2812h6.4453v13.777h-0.003907c-1.8164-1.8086-4.2852-2.8125-6.8477-2.7773h-2.8906v-7.7188zm64.949 27.797c-0.003907-2.1914-1.7812-3.9688-3.9766-3.9727h-43c-0.42578 0-0.83203-0.1875-1.1094-0.51562l-6.793-7.9688-1.9297-2.2656c-1.2891-1.5664-3.2227-2.4609-5.25-2.4219h-13.637c-2.5391 0.003906-4.5977 2.0625-4.6016 4.6016v46.836c0.003907 2.1914 1.7812 3.9688 3.9727 3.9727h72.348c2.1953-0.003906 3.9727-1.7812 3.9766-3.9727zm-13.121-6.9023v-4.8672h-21.641c-3.4297-0.007812-6.207-2.7852-6.2148-6.2148v-27.336h-8.0273c-1.8125 0-3.2812 1.4688-3.2812 3.2812v28.109l5.9883 7.0234zm-37.289 14.836c0.80859 0 1.4609 0.65625 1.4648 1.4648v20.523c0 0.39063-0.15625 0.76172-0.42969 1.0391-0.27344 0.27344-0.64844 0.42578-1.0352 0.42578h-20.523c-0.39062 0-0.76172-0.15234-1.0352-0.42578-0.27734-0.27734-0.42969-0.64844-0.42969-1.0391v-20.523c0-0.8125 0.65625-1.4648 1.4648-1.4688zm-1.4648 20.523h-17.594v-17.594h17.594zm23.727-65.43c0 0.80859 0.65625 1.4648 1.4648 1.4648h6.7578v6.7578c-0.011718 0.39453 0.13672 0.77734 0.41406 1.0625 0.27734 0.28516 0.65625 0.44531 1.0508 0.44531s0.77344-0.16016 1.0508-0.44531c0.27734-0.28516 0.42578-0.66797 0.41406-1.0625v-6.7578h6.7578c0.80859 0 1.4648-0.65625 1.4648-1.4648 0-0.80859-0.65625-1.4648-1.4648-1.4648h-6.7578v-6.7578c0-0.80859-0.65625-1.4648-1.4648-1.4648s-1.4648 0.65625-1.4648 1.4648v6.7578h-6.7617c-0.80859 0-1.4609 0.65625-1.4609 1.4648z" fill-rule="evenodd"/>
</svg>