<svg xmlns="http://www.w3.org/2000/svg" version="1.1" viewBox="-5.0 -10.0 110.0 135.0">
 <path d="m97.898 21.93c-0.12109 0.011718-0.24219 0.019531-0.36328 0.019531h-95.07c-0.12109 0-0.24219-0.007813-0.36328-0.019531-0.011718 0.28516-0.019531 0.57031-0.019531 0.85547v45.426c0 9.7812 6.8242 17.965 15.973 20.055v-49.496c0-3.7461 3.0391-6.7852 6.7852-6.7852h3.1172v-0.51953c0-3.7461 3.0391-6.7852 6.7852-6.7852h40.418c3.7461 0 6.7852 3.0391 6.7852 6.7852v56.801c9.1445-2.0898 15.973-10.273 15.973-20.055v-45.426c0-0.28516-0.007813-0.57031-0.019531-0.85547z" fill-rule="evenodd"/>
 <path d="m2.4648 18.828h95.07c-1.8438-9.4648-10.184-16.609-20.188-16.609h-54.695c-10.008 0-18.344 7.1445-20.188 16.609zm63.172-10.918c1.7422 0 3.1602 1.4141 3.1602 3.1602 0 1.7422-1.4141 3.1602-3.1602 3.1602-1.7422 0-3.1602-1.4141-3.1602-3.1602 0-1.7422 1.4141-3.1602 3.1602-3.1602zm13.262 0c1.7422 0 3.1602 1.4141 3.1602 3.1602 0 1.7422-1.4141 3.1602-3.1602 3.1602-1.7422 0-3.1602-1.4141-3.1602-3.1602 0-1.7422 1.4141-3.1602 3.1602-3.1602z" fill-rule="evenodd"/>
 <path d="m31.082 31.98h34.176c3.7461 0 6.7852 3.0391 6.7852 6.7852v51.711h6.7773v-59.016c0-2.0195-1.6367-3.6602-3.6602-3.6602h-40.418c-2.0195 0-3.6602 1.6367-3.6602 3.6602z" fill-rule="evenodd"/>
 <path d="m68.918 38.766c0-2.0195-1.6367-3.6602-3.6602-3.6602h-40.418c-2.0195 0-3.6602 1.6367-3.6602 3.6602v4.7422h47.738z" fill-rule="evenodd"/>
 <path d="m68.918 97.785v-51.152h-47.738v51.152zm-40.668-3.3242h12.391c0.86328 0 1.5625-0.69922 1.5625-1.5625 0-0.86328-0.69922-1.5625-1.5625-1.5625h-12.391c-0.86328 0-1.5625 0.69922-1.5625 1.5625 0 0.86328 0.69922 1.5625 1.5625 1.5625zm0-5.6406h25.367c0.86328 0 1.5625-0.69922 1.5625-1.5625 0-0.86328-0.69922-1.5625-1.5625-1.5625h-25.367c-0.86328 0-1.5625 0.69922-1.5625 1.5625 0 0.86328 0.69922 1.5625 1.5625 1.5625zm0-6.4297h12.391c0.86328 0 1.5625-0.69922 1.5625-1.5625s-0.69922-1.5625-1.5625-1.5625h-12.391c-0.86328 0-1.5625 0.69922-1.5625 1.5625s0.69922 1.5625 1.5625 1.5625zm35.164-29.691c0-0.86328-0.69922-1.5625-1.5625-1.5625h-33.602c-0.86328 0-1.5625 0.69922-1.5625 1.5625v22.488c0 0.86328 0.69922 1.5625 1.5625 1.5625h33.602c0.86328 0 1.5625-0.69922 1.5625-1.5625z" fill-rule="evenodd"/>
 <path d="m29.809 66.766v6.8555h30.477v-4.2539l-4.3984-2.4375-6.3242 3.3047c-0.52734 0.27344-1.1641 0.22656-1.6445-0.12109 0 0-10.422-7.6055-10.422-7.6055l-7.6875 4.2617z" fill-rule="evenodd"/>
 <path d="m29.809 63.195 7.043-3.9062c0.53125-0.29297 1.1875-0.25391 1.6797 0.10547l10.441 7.6211 6.2109-3.2422c0.46484-0.24219 1.0195-0.23828 1.4805 0.019531l3.6211 2.0039v-11.535h-30.477z" fill-rule="evenodd"/>
</svg>