<svg xmlns="http://www.w3.org/2000/svg" version="1.1" viewBox="-5.0 -10.0 110.0 135.0">
 <g>
  <path d="m49.598 69.898c-0.80859-0.30469-1.8164-0.40234-2.7266-0.20313 0.20312 1.8164-0.10156 3.7383-0.91016 5.4531-0.70703 1.7188-1.918 3.1328-3.2305 4.1406 0.50391 0.60547 1.2109 1.2109 1.8164 1.4141 3.1328 1.2109 5.5547-1.5156 6.5664-4.1406 1.0078-2.625 0.90625-5.7539-1.5156-6.6641z"/>
  <path d="m44.141 68.184c-0.40234-1.3125-1.3125-2.1211-2.3242-2.625-0.80859-0.40234-1.918-0.40234-2.8281-0.10156-0.10156 1.6172-0.70703 3.4336-1.918 5.3555-1.1094 1.7188-2.4258 3.2305-3.8398 4.1406 0.20312 1.6172 1.2109 2.7266 2.8281 3.6367 1.2109 0.50391 2.3242 0.30469 3.2305 0.10156 1.8164-0.70703 3.5352-2.4258 4.4453-4.5469 0.91016-2.0234 1.1133-4.1445 0.40625-5.9609z"/>
  <path d="m68.988 48.383c-9.0898-7.8789-18.586-15.961-29.598-8.9883-2.1211 3.8398-4.8477 6.5664-7.9805 7.8789-1.3125 0.50391-2.625 0.70703-3.9375 0.70703-1.7188 0-3.332-0.40234-4.8477-1.2109-1.3125-0.70703-2.2227-1.918-2.625-3.5352-0.40234-1.7188-0.20312-3.4336 0.60547-4.5469l6.668-10.91c1.6172-2.8281 4.3438-4.3438 6.2617-5.2539 1.5156-0.50391 2.8281-1.1094 4.2422-1.5156-6.3633-0.20312-11.719 0.70703-16.262 3.0312-4.7461 2.2227-10.809 0.70703-16.363-0.60547-0.70703 1.0117-2.1211 5.457-3.1328 13.336-1.0078 8.7852-0.70703 14.746-0.10156 16.059 5.2539 0.70703 9.5977 2.4258 13.434 5.1523 2.625-2.625 6.668-3.5352 9.5977-1.8164 1.4141 0.70703 2.3242 1.8164 2.7266 3.2305 0.10156 0.40234 0.20312 0.91016 0.20312 1.4141 2.8281-1.6172 6.1602-2.0195 8.3828-0.80859 1.3125 0.60547 2.1211 1.7188 2.5234 3.1328 1.3125-0.30469 2.7266-0.20312 3.9375 0.30469 1.6172 0.70703 2.8281 2.1211 3.8398 4.0391v0.10156c1.4141-0.30469 2.8281-0.20312 4.0391 0.30469 1.6172 0.60547 2.625 1.918 3.2305 3.6367 2.0195 1.5156 7.8789 5.1523 12.324 4.0391 1.4141-0.30469 2.4258-1.1094 3.332-2.3242-5.4531-0.80859-11.211-4.4453-13.535-6.2617-0.50391-0.30469-0.60547-1.1094-0.20312-1.6172 0.30469-0.50391 1.1094-0.60547 1.6172-0.20312 4.3438 3.332 12.523 7.375 17.07 5.5547 1.5156-0.60547 2.4258-1.8164 3.0312-3.6367-4.7461-0.50391-11.012-3.7383-16.77-8.7891-0.50391-0.40234-0.50391-1.2109-0.10156-1.7188 0.40234-0.50391 1.2109-0.50391 1.7188-0.20312 6.668 5.9609 13.938 9.1914 18.082 8.1836 1.4141-0.30469 2.3242-1.1094 2.8281-2.4258 0.50391-1.4141 0.30469-2.625-0.40234-3.8398-4.7422-2.2148-9.0859-5.9531-13.836-9.8945z"/>
  <path d="m98.789 36.668c-0.50391-8.5859-1.8164-13.738-2.5234-15.152-4.8477 2.7266-10.402 5.5547-15.961 6.0625 1.7188 2.0195 3.0312 4.4453 3.7383 7.2734 0.10156 0.50391-0.20312 1.2109-0.80859 1.4141-0.60938 0.097656-1.2148-0.30469-1.418-0.91016-1.918-7.4766-7.9805-11.617-17.879-12.324-1.5156-0.10156-2.8281-0.30469-5.1523-0.70703l-5.5547-1.1133c-2.5234-0.40234-5.0508-0.30469-7.375 0.30469-0.50391 0.10156-1.1094 0.30469-1.6172 0.40234h-0.20312c-3.0312 0.80859-6.3633 1.918-9.8984 3.2305-1.6172 0.60547-3.7383 1.918-5.1523 4.2422l-6.5586 11.012c-0.40234 0.60547-0.50391 1.7188-0.30469 2.625 0.20312 0.50391 0.50391 1.5156 1.5156 1.918 2.3242 1.1094 4.6445 1.2109 6.8672 0.30469 3.5352-1.5156 6.5664-5.2539 8.4844-10.707 0.20312-0.60547 0.80859-0.91016 1.5156-0.70703 0.60547 0.20312 0.91016 0.80859 0.70703 1.5156-0.10156 0.20313-0.20313 0.50391-0.30469 0.70703 11.211-5.0508 21.012 3.332 29.598 10.605 4.1406 3.4336 7.9805 6.668 11.918 8.6875l1.8164-4.2422c0.20312-0.60547 0.80859-0.80859 1.5156-0.60547 0.60547 0.20312 0.80859 0.80859 0.60547 1.5156l-0.60156 1.5156c3.2305-1.3125 7.6758-1.5156 12.324-1.7188 0.60547-1.1094 1.2109-6.4609 0.70703-15.148z"/>
  <path d="m53.434 77.375c-0.20312 0.50391-0.50391 1.1094-0.70703 1.5156 4.1406 1.8164 7.375 1.4141 9.5977-1.2109-3.2305-0.60547-6.1602-2.1211-8.1836-3.332-0.10156 0.90625-0.30078 1.9141-0.70703 3.0273z"/>
  <path d="m25.355 59.797c-0.20312-0.70703-0.70703-1.4141-1.6172-1.8164-0.60547-0.30469-1.4141-0.50391-2.2227-0.50391-1.8164 0-3.7383 0.91016-5.0508 2.5234-0.60547 0.91016-0.91016 2.0195-0.70703 3.2305 0.20313 1.4141 1.1094 2.5234 2.2227 3.2305 2.1211 1.1094 4.8477 0.30469 6.2617-2.3242 0.70703-1.207 1.5156-3.0273 1.1133-4.3398z"/>
  <path d="m27.172 73.23c0.80859 0.60547 1.8164 0.70703 2.8281 0.50391 1.8164-0.40234 3.6367-1.918 5.0508-4.2422 1.3125-2.3242 1.918-4.4453 1.5156-5.9609-0.20312-0.70703-0.60547-1.3125-1.4141-1.7188-1.8164-1.1094-5.5547-0.10156-7.9805 2.1211-0.20312 0.50391-0.40234 1.1094-0.70703 1.6172-0.50391 0.70703-1.2109 1.5156-1.8164 2.0195-0.71094 2.125-0.50781 3.7422 2.5234 5.6602z"/>
  <path d="m49.695 90c-0.60547 0-1.2109 0.50391-1.2109 1.1094v6.8711c0 0.60547 0.50391 1.2109 1.1094 1.2109s1.1094-0.50391 1.1094-1.1094l0.10156-6.8672c0.10547-0.71094-0.40234-1.2148-1.1094-1.2148z"/>
  <path d="m30 84.445c-0.50391-0.30469-1.3125-0.10156-1.6172 0.40234l-3.5352 5.9609c-0.30469 0.50391-0.10156 1.3125 0.40234 1.6172 0.20312 0.10156 0.40234 0.20312 0.60547 0.20312 0.40234 0 0.80859-0.20312 1.0117-0.60547l3.5352-5.9609c0.30469-0.60938 0.10156-1.3164-0.40234-1.6172z"/>
  <path d="m28.891 15.555c0.20312 0.40234 0.60547 0.60547 1.0117 0.60547 0.20312 0 0.40234 0 0.60547-0.10156 0.60547-0.30469 0.80859-1.0117 0.40234-1.6172l-3.332-5.9609c-0.30469-0.60547-1.0117-0.80859-1.6172-0.40234-0.60547 0.30469-0.80859 1.0117-0.40234 1.6172z"/>
  <path d="m50.305 10.809c0.60547 0 1.2109-0.50391 1.2109-1.1094v-6.8711c0-0.60547-0.50391-1.2109-1.1094-1.2109s-1.2109 0.50391-1.2109 1.1094l-0.10156 6.8672c-0.003906 0.71094 0.50391 1.2148 1.2109 1.2148z"/>
  <path d="m70 16.363c0.20312 0.10156 0.40234 0.20312 0.60547 0.20312 0.40234 0 0.80859-0.20312 1.0117-0.60547l3.5352-5.9609c0.30469-0.50391 0.10156-1.3125-0.40234-1.6172-0.50391-0.30469-1.3125-0.10156-1.6172 0.40234l-3.5352 5.9609c-0.30469 0.60938-0.10156 1.3164 0.40234 1.6172z"/>
  <path d="m71.109 85.254c-0.30469-0.60547-1.0117-0.80859-1.6172-0.40234-0.60547 0.30469-0.80859 1.0117-0.40234 1.6172l3.332 5.9609c0.20312 0.40234 0.60547 0.60547 1.0117 0.60547 0.20312 0 0.40234 0 0.60547-0.10156 0.60547-0.30469 0.80859-1.0117 0.40234-1.6172z"/>
 </g>
</svg>