<svg xmlns="http://www.w3.org/2000/svg" version="1.1" viewBox="-5.0 -10.0 110.0 135.0">
 <path d="m29.363 76.988v10.203c0 3.5078-2.8516 6.3516-6.3516 6.3516h-10.203c-3.5 0-6.3516-2.8438-6.3516-6.3516v-10.203c0-3.5 2.8516-6.3516 6.3516-6.3516h10.203c3.5 0 6.3516 2.8516 6.3516 6.3516z"/>
 <path d="m61.457 12.809v10.203c0 3.5078-2.8516 6.3516-6.3516 6.3516h-10.211c-3.5 0-6.3438-2.8438-6.3438-6.3516v-10.203c0-3.5 2.8438-6.3516 6.3438-6.3516h10.211c3.5 0 6.3516 2.8516 6.3516 6.3516z"/>
 <path d="m29.363 12.809v10.203c0 3.5078-2.8516 6.3516-6.3516 6.3516h-10.203c-3.5 0-6.3516-2.8438-6.3516-6.3516v-10.203c0-3.5 2.8516-6.3516 6.3516-6.3516h10.203c3.5 0 6.3516 2.8516 6.3516 6.3516z"/>
 <path d="m61.457 76.988v10.203c0 3.5078-2.8516 6.3516-6.3516 6.3516h-10.211c-3.5 0-6.3438-2.8438-6.3438-6.3516v-10.203c0-3.5 2.8438-6.3516 6.3438-6.3516h10.211c3.5 0 6.3516 2.8516 6.3516 6.3516z"/>
 <path d="m61.457 44.902v10.203c0 3.5-2.8516 6.3516-6.3516 6.3516h-10.211c-3.5 0-6.3438-2.8516-6.3438-6.3516v-10.203c0-3.5078 2.8438-6.3516 6.3438-6.3516h10.211c3.5 0 6.3516 2.8438 6.3516 6.3516z"/>
 <path d="m93.543 12.809v10.203c0 3.5078-2.8516 6.3516-6.3516 6.3516h-10.203c-3.5 0-6.3516-2.8438-6.3516-6.3516v-10.203c0-3.5 2.8516-6.3516 6.3516-6.3516h10.203c3.5 0 6.3516 2.8516 6.3516 6.3516z"/>
 <path d="m93.543 44.902v10.203c0 3.5-2.8516 6.3516-6.3516 6.3516h-10.203c-3.5 0-6.3516-2.8516-6.3516-6.3516v-10.203c0-3.5078 2.8516-6.3516 6.3516-6.3516h10.203c3.5 0 6.3516 2.8438 6.3516 6.3516z"/>
 <path d="m93.543 76.988v10.203c0 3.5078-2.8516 6.3516-6.3516 6.3516h-10.203c-3.5 0-6.3516-2.8438-6.3516-6.3516v-10.203c0-3.5 2.8516-6.3516 6.3516-6.3516h10.203c3.5 0 6.3516 2.8516 6.3516 6.3516z"/>
 <path d="m29.363 44.902v10.203c0 3.5-2.8516 6.3516-6.3516 6.3516h-10.203c-3.5 0-6.3516-2.8516-6.3516-6.3516v-10.203c0-3.5078 2.8516-6.3516 6.3516-6.3516h10.203c3.5 0 6.3516 2.8438 6.3516 6.3516z"/>
</svg>