<svg xmlns="http://www.w3.org/2000/svg" version="1.1" viewBox="-5.0 -10.0 110.0 135.0">
 <path d="m87.332 19.742-2.1992 2.1992c-0.47266 0.47266-1.1172 0.73828-1.7891 0.73828h-2.6562c-0.64453 0-1.168-0.52344-1.168-1.168s0.52344-1.168 1.168-1.168h2.6602c0.027344 0.003906 0.054688 0 0.078125-0.007812 0.023438-0.011719 0.042969-0.027344 0.058594-0.046876l2.1992-2.1992c-0.74219-1.5508-0.26172-3.4102 1.1406-4.4062 1.3984-0.99219 3.3164-0.83203 4.5312 0.38281 1.2148 1.2148 1.375 3.1328 0.38281 4.5312-0.99609 1.4023-2.8555 1.8828-4.4062 1.1406zm-69.25 21.535 2.2031-2.1992-0.003906-0.003906c0.47656-0.47266 1.1211-0.73828 1.793-0.73438h5.9492c0.3125-0.011719 0.62109 0.10938 0.84766 0.32812 0.22656 0.21875 0.35156 0.51953 0.35156 0.83594s-0.125 0.61719-0.35156 0.83594c-0.22656 0.22266-0.53516 0.33984-0.84766 0.33203h-5.9531c-0.027343-0.003906-0.054687 0-0.082031 0.007813-0.019531 0.011718-0.039062 0.027343-0.058593 0.046874l-2.1992 2.1992v0.003907c0.52734 1.0898 0.45703 2.3789-0.19141 3.4062-0.64453 1.0234-1.7734 1.6484-2.9883 1.6445-0.93359 0-1.832-0.37109-2.4922-1.0312-0.66016-0.66406-1.0312-1.5586-1.0273-2.4961 0-1.9453 1.5781-3.5234 3.5273-3.5273v0.007813c0.52734 0 1.0508 0.11719 1.5273 0.34375zm3.2852 7.3945c-1.5469-0.74219-3.4023-0.26172-4.3945 1.1406-0.98828 1.3984-0.82812 3.3086 0.38672 4.5234 1.2109 1.2109 3.125 1.3711 4.5234 0.37891 1.3984-0.99219 1.8789-2.8477 1.1367-4.3945l2.1992-2.1992c0.015625-0.019532 0.035156-0.035156 0.054688-0.046875 0.027343-0.007813 0.054687-0.011719 0.082031-0.011719h8.6133c0.64453 0 1.1641-0.51953 1.1641-1.1641 0-0.64453-0.51953-1.168-1.1641-1.168h-8.6094c-0.67188 0-1.3164 0.26562-1.7891 0.73828zm69.258-21.535c0.47656 0.23047 1 0.35156 1.5273 0.34766 0.93359 0.003906 1.832-0.36719 2.4922-1.0273 0.66406-0.66016 1.0312-1.5586 1.0312-2.4922 0-0.9375-0.37109-1.832-1.0352-2.4961-0.66016-0.66016-1.5586-1.0312-2.4922-1.0273-1.2109 0-2.3398 0.625-2.9844 1.6484-0.64453 1.0273-0.71875 2.3125-0.19531 3.4023l-2.1992 2.1992v0.003906c-0.019531 0.015626-0.035156 0.035157-0.058593 0.046876-0.027344 0.007812-0.050782 0.007812-0.078126 0.007812h-5.9453c-0.64453 0-1.168 0.52344-1.168 1.168s0.52344 1.1641 1.168 1.1641h5.9492c0.33203 0 0.65625-0.0625 0.96484-0.19141 0.30469-0.12891 0.58594-0.31641 0.82031-0.55078zm-80.031 45.051-6.2734 4.7383 15.445 20.441 6.2734-4.7383zm16.184 17.555-12.926-17.109c2.2227-2.0312 4.1211-4.3906 5.6328-6.9961 1.4375-2.375 3.125-4.582 5.043-6.5898 5.1211-4.1836 9.0156-3.6914 16.969-2.6875 1.2773 0.16016 1.0039 0.13281 1.8242 0.23438l0.078126 0.007812v-0.003906c2.0586 0.19531 4.1289 0.19922 6.1875 0.019532 3.3359-0.32031 6.6094-1.1328 9.7109-2.4141 0.30469-0.125 0.65234 0.015625 0.78125 0.31641 0.17578 0.41797 0.30078 0.85938 0.375 1.3086 0.23438 1.9336-0.16797 3.8906-1.1484 5.5781-0.84766 1.668-2.2188 3.0156-3.9062 3.832-0.32813 0.14062-0.66797 0.24609-1.0195 0.30859-2.5391 0.1875-5.0859 0.20703-7.625 0.050781-2.2383-0.10547-3.7695-0.17188-4.8281 0.39453-1.1055 0.55859-1.9766 1.4961-2.4531 2.6406-0.25391 0.625-0.32812 1.3125-0.21875 1.9805 0.12109 0.69141 0.46875 1.3242 0.98828 1.7969 0.75781 0.64844 1.7227 1.0078 2.7188 1.0117l9.0664 1.0156c1.4531 0.078125 2.9062-0.19922 4.2266-0.80859 1.8086-0.78125 3.5234-1.7539 5.125-2.8984l16.719-11.656c1.543-0.73047 3.2695-0.99219 4.957-0.75391 0.375 0.066407 0.72266 0.23438 1.0039 0.48828 0.16016 0.17969 0.24219 0.41406 0.22656 0.65625-0.15234 0.91797-0.58594 1.7695-1.2422 2.4297l-19.645 19.977c-1.4688 1.1719-3.1328 2.082-4.9141 2.6914-1.957 0.83594-4.0273 1.3867-6.1406 1.625l-17.734 0.39844h-0.050781c-1.6875 0.046874-3.3477 0.43359-4.8828 1.1406-1.0508 0.54297-2.0234 1.2188-2.8984 2.0156zm15.551-50.875-0.089844 0.019531h-0.003906c-2.4023 0.49609-4.7422 1.2695-6.9727 2.3008 0.32031 0.36719 0.65625 0.71875 1 1.0664h0.003906c2.9336 2.9414 6.6055 5.0352 10.629 6.0703-1.2031-1.4375-2.1914-3.0469-2.9258-4.7773-0.66406-1.5156-1.2109-3.0781-1.6367-4.6797zm20.695-26.051 0.089843-0.019531v-0.003906c2.4062-0.49219 4.7461-1.2656 6.9727-2.2969-0.32031-0.36719-0.65625-0.72266-1-1.0664-2.9336-2.9414-6.6055-5.0352-10.629-6.0703 1.2031 1.4375 2.1914 3.0469 2.9258 4.7773 0.66406 1.5156 1.2109 3.0781 1.6367 4.6797zm-18.406 0.42578c0.39062-1.4258 0.88281-2.8164 1.4727-4.168 1.7656-3.9805 4.1016-6.4414 6.5859-6.4414s4.8203 2.4609 6.5859 6.4414c0.59375 1.3516 1.0859 2.7422 1.4727 4.168-2.6641 0.41797-5.3594 0.62109-8.0547 0.61719-2.6992 0.003906-5.3906-0.19922-8.0586-0.61719zm-9.3555-2.7461c2.2305 1.0312 4.5703 1.8047 6.9766 2.2969l0.089844 0.019531v0.003906c0.42969-1.6016 0.97656-3.1641 1.6367-4.6797 0.73828-1.7305 1.7227-3.3398 2.9297-4.7773-4.0273 1.0352-7.6992 3.1289-10.633 6.0703-0.34375 0.34375-0.67969 0.69922-1 1.0664zm5.7578 21.355c0.18359 1.6523 0.4375 3.2422 0.76172 4.75l-0.035156 0.007813c-2.7617 0.56641-5.4375 1.4766-7.9648 2.7148-1.6172-2.2578-2.8125-4.7891-3.5312-7.4727zm-0.21094-9.6914-11.055 0.003906c-0.38672 2.4375-0.38672 4.918 0 7.3555h11.059c-0.078125-1.1992-0.12109-2.4297-0.12109-3.6797s0.042969-2.4766 0.12109-3.6836zm23.516-2.332v0.003906c-0.17188-1.5977-0.42578-3.1836-0.75781-4.7539l0.035156-0.007813v0.003907c2.7578-0.56641 5.4375-1.4766 7.9688-2.7148 1.6133 2.2578 2.8086 4.7891 3.5273 7.4727zm-20.969 0 18.633 0.003906c-0.17188-1.5039-0.40625-2.9492-0.69922-4.3164-2.8477 0.45703-5.7305 0.68359-8.6133 0.67969-2.8867 0.003907-5.7656-0.22266-8.6133-0.67969-0.29297 1.3672-0.52734 2.8164-0.69922 4.3164zm-13.109 0v0.003906c0.71875-2.6836 1.9141-5.2148 3.5312-7.4766 2.5273 1.2383 5.2031 2.1523 7.9609 2.7148l0.035157 0.007813c-0.31641 1.5078-0.57813 3.0977-0.76172 4.75zm26.879 9.6914c-0.25781-0.55859-0.14062-1.2227 0.29688-1.6562l1.6523-1.6523c0.52734-0.52734 1.3594-0.57813 1.9453-0.12109l1.1797 0.91406 0.11328-0.066406v-0.21094-0.88672c0-1.2539-0.042969-2.4805-0.125-3.6836h-19.051c-0.082031 1.1992-0.125 2.4258-0.125 3.6836 0 1.25 0.042969 2.4805 0.125 3.6797zm-2.8125 6-0.003906-0.15234c0-0.35938 0.13281-0.70703 0.37109-0.97266 0.23437-0.26953 0.5625-0.44141 0.91797-0.48828l1.4727-0.1875c0.13281-0.47656 0.29297-0.94531 0.48828-1.4023 0.0625-0.15625 0.13281-0.31641 0.21094-0.46484l-14.406-0.003906c0.17188 1.5039 0.41016 2.9492 0.69922 4.3164 2.8477-0.45703 5.7266-0.68359 8.6133-0.67969 0.37109 0 0.84766 0.007813 1.4336 0.023437l0.21094 0.007813zm3.3828 9.9766c-0.61719 0.96875-1.3906 1.8281-2.293 2.543-0.77734 0.62891-1.7383 0.98438-2.7383 1.0117-2.4844 0-4.8203-2.4609-6.5859-6.4414-0.59375-1.3516-1.0859-2.7422-1.4727-4.168 2.6641-0.41797 5.3594-0.62109 8.0547-0.61719 0.57422 0 1.0352 0.003906 1.3789 0.011719l0.26563 0.007812h0.003906c0.027344 0.3125 0.15625 0.60938 0.36328 0.84375 0.042969 0.046875 0.089844 0.09375 0.13672 0.13281 0.22266 0.19141 0.49609 0.31641 0.78516 0.35156l1.4727 0.1875h0.003906c0.25 0.96094 0.62891 1.8789 1.1328 2.7383l-0.91406 1.1797v-0.003906c-0.45703 0.58984-0.40234 1.4219 0.12109 1.9492l0.27344 0.27344zm5.4336 1.0742c-0.31641-0.14844-0.62891-0.30859-0.92969-0.48437l-1.1797 0.91406v-0.003906c-0.28125 0.21875-0.63672 0.32812-0.99219 0.30859-0.22266-0.015626-0.4375-0.078126-0.63281-0.1875-0.29297 0.42187-0.60547 0.82422-0.94141 1.2109 0.28125-0.070313 0.55859-0.14844 0.84375-0.23047 1.3203-0.39453 2.6055-0.90625 3.8359-1.5273zm7.2617-22.176 0.1875 1.4727c0.95703 0.25 1.8789 0.63281 2.7344 1.1328l1.1797-0.91406c0.28125-0.21875 0.63672-0.32813 0.99219-0.30469 0.13672 0.007812 0.27344 0.035156 0.40234 0.078125v-0.019531c0-1.2344-0.097657-2.4648-0.29297-3.6836h-11.059c0.078125 1.2031 0.11719 2.4297 0.12109 3.6836v0.10547c0.09375-0.027343 0.19141-0.054687 0.28516-0.078124l0.1875-1.4727c0.035156-0.29297 0.16016-0.56641 0.35156-0.78906 0.042969-0.046875 0.085937-0.09375 0.13281-0.13672 0.26953-0.23828 0.61719-0.37109 0.97656-0.37109h2.3359c0.36328 0 0.70703 0.13281 0.97656 0.37109 0.26953 0.23828 0.44141 0.5625 0.48828 0.91797zm-2.0195 2.5547c0.054687 0.51172 0.44141 0.92578 0.94922 1.0156 0.60547 0.10938 1.1992 0.28906 1.7695 0.52734 0.5625 0.23047 1.1016 0.52344 1.6016 0.87109 0.41797 0.30469 0.98828 0.29688 1.3945-0.019531l1.2305-0.95312 0.59375 0.59375-0.94922 1.2188 0.003906-0.003906c-0.31641 0.40234-0.33203 0.96094-0.042969 1.3789 0.70312 1.0156 1.1797 2.1641 1.4062 3.375 0.082031 0.51172 0.48828 0.90625 1.0039 0.96875l1.5391 0.19531v0.84375l-1.5195 0.19141c-0.51172 0.054687-0.92578 0.44141-1.0195 0.94922-0.22266 1.207-0.69531 2.3555-1.3906 3.3672-0.30859 0.41797-0.30078 0.98828 0.019532 1.3945l0.95312 1.2305-0.59375 0.59375-1.2148-0.93359c-0.39844-0.32031-0.96484-0.33984-1.3828-0.046875-0.51172 0.35156-1.0586 0.64844-1.6289 0.88672-0.5625 0.23438-1.1484 0.41016-1.75 0.51953-0.50781 0.078125-0.90234 0.48828-0.96875 1l-0.19531 1.5391h-0.84375l-0.19141-1.5195c-0.054687-0.51172-0.4375-0.92578-0.94531-1.0156-1.207-0.22266-2.3555-0.69531-3.3672-1.3945-0.41797-0.30469-0.98828-0.29688-1.3984 0.019532l-1.2305 0.95312-0.59375-0.59375 0.94922-1.2188v0.003907c0.32031-0.40234 0.33984-0.96484 0.046875-1.3828-0.35156-0.51172-0.64844-1.0586-0.88672-1.6289-0.23438-0.5625-0.40625-1.1484-0.51953-1.75-0.078125-0.50781-0.48828-0.90234-1-0.96875l-1.5391-0.19531v-0.84375l1.5195-0.19141v0.003907c0.51172-0.054688 0.92578-0.44141 1.0156-0.94922 0.11328-0.60547 0.28906-1.1992 0.52734-1.7695 0.23438-0.5625 0.52734-1.0977 0.87109-1.6016 0.30469-0.41797 0.29688-0.98828-0.019531-1.3945l-0.95312-1.2305 0.59375-0.59375 1.2188 0.94141h-0.003906c0.40234 0.32031 0.96484 0.33984 1.3867 0.046875 1.0117-0.69922 2.1641-1.1797 3.375-1.4062 0.50781-0.082031 0.90234-0.48828 0.96875-1l0.19531-1.5391h0.84375l0.19531 1.5195zm2.6211 6.3594v-0.003906c-1.543-1.543-3.9609-1.7812-5.7734-0.57031-1.8125 1.2148-2.5195 3.5391-1.6836 5.5547 0.83203 2.0156 2.9766 3.1602 5.1172 2.7344 2.1367-0.42578 3.6797-2.3047 3.6797-4.4844 0-1.2148-0.48047-2.3789-1.3398-3.2344zm-3.2344-3.6719v-0.003907c-3.293 0-6.1289 2.3281-6.7695 5.5586-0.64453 3.2305 1.0859 6.4648 4.1289 7.7266 3.043 1.2578 6.5547 0.19531 8.3828-2.543s1.4688-6.3906-0.85938-8.7188c-1.293-1.2969-3.0508-2.0195-4.8828-2.0195z" fill-rule="evenodd"/>
</svg>