<svg xmlns="http://www.w3.org/2000/svg" data-name="Layer 1" viewBox="0 0 48 60" x="0px" y="0px"><title>ui 32</title><path d="M40.8,16H39v9.14a6.212,6.212,0,0,1-6.2,6.2H16.08a1.745,1.745,0,0,0-1.01.31L15,31.7v4.44a4.206,4.206,0,0,0,4.2,4.2H34.67a1,1,0,0,1,.64.23l4.77,3.99a2.983,2.983,0,0,0,1.91.7,2.915,2.915,0,0,0,1.28-.29A2.966,2.966,0,0,0,45,42.26V20.2A4.2,4.2,0,0,0,40.8,16Z"/><path d="M4.808,34.01a3.392,3.392,0,0,0,3.5-.191l5.641-3.828a3.789,3.789,0,0,1,2.133-.655H32.8a4.2,4.2,0,0,0,4.2-4.2V7.2A4.2,4.2,0,0,0,32.8,3H7.2A4.2,4.2,0,0,0,3,7.2V31.006A3.393,3.393,0,0,0,4.808,34.01ZM20,8.5A1.5,1.5,0,1,1,18.5,10,1.5,1.5,0,0,1,20,8.5ZM18.5,21H19V15a1,1,0,0,1,0-2h1a1,1,0,0,1,1,1v7h.5a1,1,0,0,1,0,2h-3a1,1,0,0,1,0-2Z"/>
</svg>