<svg xmlns="http://www.w3.org/2000/svg" version="1.1" viewBox="-5.0 -10.0 110.0 135.0">
 <path d="m19.793 90.625v-80.207h-3.125c-0.57422 0-1.043 0.46875-1.043 1.043v83.332c0 0.57422 0.46875 1.043 1.043 1.043h60.418c0.57422 0 1.043-0.46875 1.043-1.043v-3.125h-57.297c-0.57422 0-1.043-0.46875-1.043-1.043z"/>
 <path d="m67.707 4.7812v16.051h16.055z"/>
 <path d="m53.125 27.082c5.5117-0.17578 5.5-8.1562 0-8.332-5.5117 0.17578-5.5 8.1562 0 8.332z"/>
 <path d="m66.668 22.918c-0.57422 0-1.043-0.46875-1.043-1.043v-17.707h-42.707c-0.57422 0-1.043 0.46875-1.043 1.043v83.332c0 0.57422 0.46875 1.043 1.043 1.043h60.418c0.57422 0 1.043-0.46875 1.043-1.043l-0.003906-65.625zm-13.543-9.375c9.918-0.11328 16 11.449 10.312 19.551-4.8438 7.207-15.781 7.207-20.625 0-5.6875-8.1055 0.39453-19.668 10.312-19.551zm-11.457 29.164h22.918c0.57422 0 1.043 0.46875 1.043 1.043s-0.46875 1.043-1.043 1.043h-22.918c-1.3633-0.019531-1.375-2.0625 0-2.082zm-3.125 6.25h33.332c0.57422 0 1.043 0.46875 1.043 1.043s-0.46875 1.043-1.043 1.043h-33.332c-1.3555-0.019531-1.375-2.0625 0-2.082zm0 6.25h25c1.3633 0.019531 1.375 2.0625 0 2.082h-25c-1.3633-0.019531-1.375-2.0625 0-2.082zm0 6.25h34.375c1.3555 0.019531 1.375 2.0625 0 2.082h-34.375c-1.3555-0.019531-1.375-2.0625 0-2.082zm-8.3359-12.5h3.125c1.3633 0.019531 1.3633 2.0625 0 2.082h-3.125c-1.3633-0.019531-1.3633-2.0625 0-2.082zm0 6.25h3.125c1.3633 0.019531 1.3633 2.0625 0 2.082h-3.125c-1.3633-0.019531-1.3633-2.0625 0-2.082zm0 6.25h3.125c1.3633 0.019531 1.3633 2.0625 0 2.082h-3.125c-1.3633-0.019531-1.3633-2.0625 0-2.082zm32.293 20.836h-32.293c-1.3555-0.019531-1.375-2.0625 0-2.082h32.293c1.3555 0.019531 1.375 2.0625 0 2.082zm13.543-6.25h-45.836c-1.3555-0.019531-1.3867-2.0625 0-2.082h45.832c1.3555 0.019531 1.3867 2.0625 0 2.082zm0-6.25h-45.836c-1.3555-0.019531-1.3867-2.0625 0-2.082h45.832c1.3555 0.019531 1.3867 2.0625 0 2.082z"/>
 <path d="m60.418 33.469v-1.1758c0-2.3008-1.8633-4.168-4.168-4.168h-6.25c-2.3008 0-4.168 1.8633-4.168 4.168v1.1758c3.6875 3.9258 10.895 3.9258 14.582 0z"/>
</svg>